<svg version="1" xmlns="http://www.w3.org/2000/svg" width="1365.333" height="1365.333" viewBox="0 0 1024.000000 1024.000000"><path d="M742.9 49.4c-.2.2-2.9.6-5.9 1-9.3 1-18 3-32 7.1-16.3 4.8-41.9 19.3-59.5 33.7-14.3 11.8-33.2 31.9-45.3 48.3-2.8 3.8-5.5 7.4-5.9 8-2.9 3.7-18.3 27.9-21.7 34.2-.1.1-3.3-.2-7.1-.7-3.9-.5-9.7-1.1-13-1.5-3.3-.3-7.3-.8-9-1-1.6-.2-6.1-.6-10-1-3.8-.3-8.8-.8-11-1-2.2-.2-7.6-.7-12-1-4.4-.3-10.2-.8-13-1-25.8-1.9-71.2-2.4-99-1.1-15.7.7-17.9.9-32 2.1-12.7 1.1-35.1 3.8-41.4 5-1.2.2-4.3.7-6.8.9-7.9 1-31.4 5.5-47.3 9.2-79.1 18.3-146.5 51-197.3 95.5-16.2 14.2-34.6 33.7-42.8 45.4-19.4 27.8-23.2 57-9.7 75.6l3.1 4.3 1.8-2.3c1.8-2.2 1.8-2.3-.1-4.9-8.5-11.5-9-28.2-1.5-45.7 6.2-14.5 25.9-37.8 47-55.8 10.9-9.3 11.1-9.4 21.7-17.3 24.7-18.4 49.1-32.5 82.3-47.4 7.3-3.3 31.1-12.5 37.5-14.4 3-1 6.4-2.1 7.5-2.6 3.4-1.4 36.3-10.7 41.5-11.6 1.4-.3 5-1.1 8-1.9 3-.8 7.1-1.7 9-2 1.9-.3 4.2-.8 5-1 1.8-.5 3.6-.8 19.5-3.4 6.6-1.1 14-2.3 16.5-2.6 2.5-.3 5.2-.8 6-1 .8-.2 4.4-.6 8-1 3.6-.3 7.9-.7 9.5-1 1.7-.2 6.6-.6 11-1 4.4-.3 9.6-.8 11.5-1 18.3-2.2 73.8-2.2 106.5 0 11.1.8 21.2 1.6 24.5 2 1.9.2 6.4.7 10 1 8 .7 10.3 1 25.5 3 24.9 3.2 27.5 3.6 27.5 4.3 0 .3-3.3 7.4-7.4 15.6-11.5 23.3-27.3 57.6-34 73.3-1.4 3.5-3.7 8.6-5 11.5-1.3 2.9-4.7 11.1-7.6 18.3-2.8 7.1-5.8 14.3-6.5 16-6.8 15.4-37.2 101.9-39 110.8-.2 1-1.7 6.2-3.4 11.5-6.8 22-20.9 74.9-22.7 85.2-.3 1.4-.9 3.8-1.4 5.5-.5 1.6-1.2 4.6-1.5 6.5-.3 1.9-1 5.1-1.5 7-1.1 4.3-7.1 33.7-7.5 36.7-.2 1.2-.6 3.4-.9 5-.4 1.5-.9 3.9-1.1 5.3-.5 2.6-5.3 30.5-6 35-2.6 16.4-5.7 38.4-7 50-.6 5.3-1 8.5-2 16.7-.2 2.1-.7 6.5-1 9.8-.3 3.3-.7 8-1 10.5-.8 8.2-1.7 18.4-3 36.5-.3 4.4-.8 10-1.1 12.5-.2 2.5-.7 14.6-.9 27-.5 20.8-.4 22.8 1.4 26.7 3.7 8.1 12.5 10.6 20.6 5.8 10.7-6.2 15.5-20.6 10.5-31-2.1-4.3-2.2-5.4-1.5-19.5.3-8.2.8-16 1-17.2.2-1.3.6-6.9 1-12.5.3-5.6.7-11 .9-12 .2-1 .7-5.4 1.1-9.8.3-4.4 1-10.9 1.5-14.5.5-3.6 1.1-9.7 1.5-13.5.3-3.9.8-8.1 1-9.5.3-1.4.7-4.1 1-6 .2-1.9.7-5.2 1-7.3.3-2.1.7-5.9 1-8.5.3-2.6 1-7 1.5-9.7.5-2.8 1.1-6.8 1.4-9 1.9-15.2 11.4-65.5 17.3-91.5 1.9-8.5 3.7-16.6 3.9-18 .3-1.4 1.4-6.1 2.5-10.5 1.2-4.4 2.2-8.7 2.4-9.5 1.7-8.5 16.9-63 22.7-81 9.4-29.8 25.8-77 30.3-87.5.7-1.7 3.3-8.2 5.8-14.5 10-25.7 23-55.8 35.3-82 7-15 28.3-57.2 29.3-58.3.8-.8 15.4 1.4 37.6 5.9 7.2 1.4 14.1 2.8 15.5 3 12.9 2.4 63.3 12.8 77 15.9 3.6.8 7.6 1.7 9 1.9 1.4.3 9.9 2.1 19 4s18.3 3.7 20.5 4c2.2.3 5.1.8 6.5 1.1 2.5.4 4.6.7 17.4 2.6 19.6 2.7 45.7 3.2 59.6 1 35.1-5.6 56.2-24.7 60.9-55.1 2.8-17.8-.8-39.9-9.4-58.7-8.2-17.8-27.4-39.9-46.5-53.6-20.2-14.3-51.3-27.1-73.5-30.3-2.7-.3-5.9-.9-7-1.1-2.5-.6-36.1-1.4-36.6-.9zM779 81.5c16.6 3 31.2 7.6 43.5 13.8 41.3 20.6 64.8 54.1 63.1 90-1.4 27.4-25.4 38.1-77.6 34.4-9.1-.6-29.4-3.1-34.2-4.1-1.3-.3-3.9-.8-5.8-1.1-1.9-.2-4.4-.6-5.5-.9-1.1-.2-4.2-.7-7-1.1-2.7-.5-5.2-.9-5.5-1-2.1-.5-8.2-1.6-11.5-2-2.2-.3-6-1-8.5-1.5s-5.8-1.1-7.5-1.4c-1.6-.2-4.1-.7-5.5-1-1.4-.4-3.8-.8-5.5-1-1.6-.3-5.7-.9-9-1.6-3.3-.6-7.6-1.3-9.5-1.6-1.9-.2-4.2-.6-5-.9-.8-.2-3.3-.7-5.5-1.1-2.2-.3-8.5-1.4-14-2.4-10.7-2-50.2-8.6-57.5-9.6-2.5-.3-4.6-.7-4.8-.9-.2-.2 15.1-23.6 17.3-26.4.8-.9 4.4-5.4 8.1-10.1 20.4-25.6 42.3-44.5 64.1-55.4C716.4 84.2 735.6 80 760 80.5c8.5.2 17.1.6 19 1z"/><path d="M992.5 181.4c-4.2 1.9-6.7 5.1-9.9 12.6-3.7 8.6-13.8 27.9-27.1 52-5.9 10.7-12.1 22-13.8 25-7.6 13.9-17.1 30.6-24.2 43-4.3 7.4-8.3 14.5-8.9 15.7-.6 1.3-1.4 2.3-1.8 2.3-.5 0-.8.4-.8 1 0 .5-6.2 11.2-13.8 23.7-49.5 81.5-97.6 146.4-140.5 189.5-11.5 11.6-17.7 7.7-16.4-10.4 1.1-15.1 15-66.3 27-99.3 10.6-29.1 18.5-47.5 32.1-75 7.6-15.2 9-18.8 9-23 .1-6.2-2.7-10.6-8.7-13.6-4.7-2.5-10.6-2.1-14.5.8-2.9 2.2-7.8 10.9-19.3 34.1-17.1 34.9-31.3 71.5-42.4 109.2-6.4 21.7-11.3 39.4-12.1 43.5-.4 2.2-.9 4.7-1 5.5-1.6 7.4-2.1 21.5-1.1 29.5 3.5 28.1 25.5 41.8 48.6 30.4 8.9-4.4 17.5-13.4 31.6-32.9 6.5-9.1 12.1-16.7 12.4-17 .4-.3 1.7-2.1 3.1-4 1.3-1.9 2.8-4 3.2-4.5 19.7-25.3 51.3-72.1 78.3-116 11.4-18.6 33.4-55.4 37.1-62.3 1.4-2.6 2.9-5.4 3.4-6.2 3.4-5.5 9-15.3 9-15.5 0-.1 2.1-3.8 4.6-8.1 5.5-9.5 5.7-10.4-5.5 23.1-10.9 32.8-28.5 88.8-31.6 100.5-.2.8-3.4 11.6-7 24-3.7 12.4-16.3 56-28.1 97-53.8 186.5-68.9 231.6-98.4 293.6-21 44.2-50.4 82-77.6 99.6-53.9 34.9-113.3 6.7-127-60.2-3.1-15.3-2.3-42.4 2.1-69 .8-4.7 1.7-10.3 2-12.5.3-2.2 1.5-9.3 2.7-15.8 1.1-6.5 1.8-12 1.5-12.4-1.9-1.8-3.7 2-7.5 15.3-4.5 16-7.6 30.2-8.7 39.9-.4 3.3-1 6.9-1.2 8-.9 4-1 32.2-.1 39.5 2.5 21 10.4 41.8 21.6 56.8 16.9 22.8 40.3 35.6 65.6 36.1 29.5.6 56.7-11.6 83.5-37.3 13.2-12.6 29.8-33.4 40.5-50.7 3.2-5.2 6.6-10.5 7.5-11.9 8.4-12.4 31.3-57.5 43.9-86.3 10.2-23.4 24.5-59.5 34.7-87.7 4.2-11.8 8.1-22.4 8.6-23.5 2-4.8 18.1-53.3 17.9-53.7-.1-.2.4-1.7 1-3.3 2-5.1 13.3-41.4 16-51 .4-1.7 3-10.4 5.8-19.5 4.9-16 12.6-42.5 25.7-87.5 3.5-12.1 10.3-34.6 15-50 4.7-15.4 9-29.4 9.4-31 1.3-4.7 10.4-32.1 17-51.5 13.2-38.7 24.2-69.4 32.2-89.9 3.4-8.6 7.7-19.7 9.7-24.6 4.1-10.8 5.2-20.1 2.8-25.6-1.7-4.2-6.9-8.9-9.6-8.9-1 0-2.4-.2-3.2-.5-.7-.2-2.6.2-4.3.9z"/></svg>